<svg version="1.1" xmlns="http://www.w3.org/2000/svg" xmlns:xlink="http://www.w3.org/1999/xlink" width="115.20999" height="48.02518" viewBox="0,0,115.20999,48.02518"><g transform="translate(-211.22926,-155.75515)"><g data-paper-data="{&quot;isPaintingLayer&quot;:true}" fill-rule="nonzero" stroke-linejoin="miter" stroke-miterlimit="10" stroke-dasharray="" stroke-dashoffset="0" style="mix-blend-mode: normal"><path d="M214.7473,171.41245l51.2994,-0.2585l1.3782,5.5931l-23.819,6.2201l-7.2999,0.0368l-23.7309,-6.0804z" fill="#765319" stroke="#000000" stroke-width="2" stroke-linecap="round"/><path d="M237.6189,182.97465l-23.9478,-6.6354l0.5608,-2.0237l23.9477,6.6353z" fill="#ae7b26" stroke="none" stroke-width="1" stroke-linecap="butt"/><path d="M241.8513,180.75475l24.0125,-6.3971l0.5406,2.0292l-24.0125,6.3971z" fill="#ae7b26" stroke="none" stroke-width="1" stroke-linecap="butt"/><path d="M236.0686,161.22265l3.9795,-4.0871l3.8709,4.1379l0.0524,10.3932l-0.9139,17.0862l-1.1081,8.3204l7.8142,2.8075l0.1103,2.033l-1.4959,0.8209l-18.0998,0.0913l-1.4041,-0.8064l0.2409,-1.8087l8.634,-3.2068l-1.0415,-8.2192l-0.5865,-17.169z" fill="#765319" stroke="#000000" stroke-width="1.9062" stroke-linecap="round"/><path d="M227.0963,164.92425l3.65,-0.0184l0.0317,6.2887l-3.65,0.0184z" fill="#d29f30" stroke="#000000" stroke-width="1.86122" stroke-linecap="butt"/><path d="M249.2463,164.92425l3.65,-0.0184l0.0317,6.2887l-3.65,0.0184z" fill="#d29f30" stroke="#000000" stroke-width="1.86122" stroke-linecap="butt"/><path d="M231.6768,200.89685l15.8436,0.0092l0.9746,1.6868l-18.5472,0.2716z" fill="#ae7b26" stroke="none" stroke-width="1.43254" stroke-linecap="round"/><path d="M246.9594,174.43125l8.5999,-0.0434l0.0083,1.65l-8.5999,0.0434z" fill="#ffd315" stroke="none" stroke-width="0.94716" stroke-linecap="butt"/><path d="M224.3094,174.33125l8.5999,-0.0434l0.0083,1.65l-8.5999,0.0434z" fill="#ffd315" stroke="none" stroke-width="0.94716" stroke-linecap="butt"/><path d="M239.7661,170.11195c0.6967,-0.0035 1.3296,0.3213 1.7895,0.848c0.4591,0.5277 0.7461,1.2573 0.7502,2.0642c0.0041,0.807 -0.2756,1.5395 -0.7293,2.0717c-0.4546,0.5313 -1.0842,0.8625 -1.7809,0.866c-0.6967,0.0035 -1.3296,-0.3213 -1.7896,-0.848c-0.459,-0.5277 -0.7461,-1.2572 -0.7501,-2.0642c-0.0041,-0.807 0.2756,-1.5394 0.7293,-2.0717c0.4546,-0.5313 1.0842,-0.8625 1.7809,-0.866z" fill="#15c4ff" stroke="none" stroke-width="0.96814" stroke-linecap="butt"/><path d="M237.819,192.44655l4.0499,-0.0205l-0.2866,2.6515l-3.4499,0.0174z" fill="#ffd214" stroke="none" stroke-width="1" stroke-linecap="round"/><path d="M233.7351,159.16535l12.6998,-0.064" fill="none" stroke="#000000" stroke-width="2" stroke-linecap="round"/><path d="M238.5365,160.04295l2.95,-0.0149l1.4578,1.5427l-5.8999,0.0297z" fill="#d29f30" stroke="none" stroke-width="1" stroke-linecap="round"/><path d="M239.9389,170.43475c0.759,-0.0038 1.4476,0.3007 1.9481,0.7962c0.5005,0.4955 0.8119,1.1809 0.8158,1.9399c0.0038,0.759 -0.3007,1.4475 -0.7962,1.948c-0.4955,0.5005 -1.181,0.812 -1.9399,0.8158c-0.759,0.0038 -1.4476,-0.3007 -1.9481,-0.7962c-0.5005,-0.4955 -0.8119,-1.1809 -0.8158,-1.9399c-0.0038,-0.759 0.3007,-1.4475 0.7962,-1.948c0.4955,-0.5005 1.1809,-0.812 1.9399,-0.8158z" fill="none" stroke="#463207" stroke-width="1" stroke-linecap="butt"/><path d="M272.55473,171.41245l51.2994,-0.2585l1.3782,5.5931l-23.819,6.2201l-7.2999,0.0368l-23.7309,-6.0804z" fill="#765319" stroke="#000000" stroke-width="2" stroke-linecap="round"/><path d="M295.42633,182.97465l-23.9478,-6.6354l0.5608,-2.0237l23.9477,6.6353z" fill="#ae7b26" stroke="none" stroke-width="1" stroke-linecap="butt"/><path d="M299.65873,180.75475l24.0125,-6.3971l0.5406,2.0292l-24.0125,6.3971z" fill="#ae7b26" stroke="none" stroke-width="1" stroke-linecap="butt"/><path d="M293.87603,161.22265l3.9795,-4.0871l3.8709,4.1379l0.0524,10.3932l-0.9139,17.0862l-1.1081,8.3204l7.8142,2.8075l0.1103,2.033l-1.4959,0.8209l-18.0998,0.0913l-1.4041,-0.8064l0.2409,-1.8087l8.634,-3.2068l-1.0415,-8.2192l-0.5865,-17.169z" fill="#765319" stroke="#000000" stroke-width="1.9062" stroke-linecap="round"/><path d="M284.90373,164.92425l3.65,-0.0184l0.0317,6.2887l-3.65,0.0184z" fill="#d29f30" stroke="#000000" stroke-width="1.86122" stroke-linecap="butt"/><path d="M307.05373,164.92425l3.65,-0.0184l0.0317,6.2887l-3.65,0.0184z" fill="#d29f30" stroke="#000000" stroke-width="1.86122" stroke-linecap="butt"/><path d="M289.48423,200.89685l15.8436,0.0092l0.9746,1.6868l-18.5472,0.2716z" fill="#ae7b26" stroke="none" stroke-width="1.43254" stroke-linecap="round"/><path d="M304.76683,174.43125l8.5999,-0.0434l0.0083,1.65l-8.5999,0.0434z" fill="#ffd315" stroke="none" stroke-width="0.94716" stroke-linecap="butt"/><path d="M282.11683,174.33125l8.5999,-0.0434l0.0083,1.65l-8.5999,0.0434z" fill="#ffd315" stroke="none" stroke-width="0.94716" stroke-linecap="butt"/><path d="M297.57353,170.11195c0.6967,-0.0035 1.3296,0.3213 1.7895,0.848c0.4591,0.5277 0.7461,1.2573 0.7502,2.0642c0.0041,0.807 -0.2756,1.5395 -0.7293,2.0717c-0.4546,0.5313 -1.0842,0.8625 -1.7809,0.866c-0.6967,0.0035 -1.3296,-0.3213 -1.7896,-0.848c-0.459,-0.5277 -0.7461,-1.2572 -0.7501,-2.0642c-0.0041,-0.807 0.2756,-1.5394 0.7293,-2.0717c0.4546,-0.5313 1.0842,-0.8625 1.7809,-0.866z" fill="#15c4ff" stroke="none" stroke-width="0.96814" stroke-linecap="butt"/><path d="M295.62643,192.44655l4.0499,-0.0205l-0.2866,2.6515l-3.4499,0.0174z" fill="#ffd214" stroke="none" stroke-width="1" stroke-linecap="round"/><path d="M291.54253,159.16535l12.6998,-0.064" fill="none" stroke="#000000" stroke-width="2" stroke-linecap="round"/><path d="M296.34393,160.04295l2.95,-0.0149l1.4578,1.5427l-5.8999,0.0297z" fill="#d29f30" stroke="none" stroke-width="1" stroke-linecap="round"/><path d="M297.74633,170.43475c0.759,-0.0038 1.4476,0.3007 1.9481,0.7962c0.5005,0.4955 0.8119,1.1809 0.8158,1.9399c0.0038,0.759 -0.3007,1.4475 -0.7962,1.948c-0.4955,0.5005 -1.181,0.812 -1.9399,0.8158c-0.759,0.0038 -1.4476,-0.3007 -1.9481,-0.7962c-0.5005,-0.4955 -0.8119,-1.1809 -0.8158,-1.9399c-0.0038,-0.759 0.3007,-1.4475 0.7962,-1.948c0.4955,-0.5005 1.1809,-0.812 1.9399,-0.8158z" fill="none" stroke="#463207" stroke-width="1" stroke-linecap="butt"/></g></g></svg>