<svg version="1.1" xmlns="http://www.w3.org/2000/svg" xmlns:xlink="http://www.w3.org/1999/xlink" width="288.13177" height="48.02518" viewBox="0,0,288.13177,48.02518"><g transform="translate(-187.68248,-155.75515)"><g data-paper-data="{&quot;isPaintingLayer&quot;:true}" fill-rule="nonzero" stroke-linejoin="miter" stroke-miterlimit="10" stroke-dasharray="" stroke-dashoffset="0" style="mix-blend-mode: normal"><path d="M191.20052,171.41245l51.2994,-0.2585l1.3782,5.5931l-23.819,6.2201l-7.2999,0.0368l-23.7309,-6.0804z" fill="#765319" stroke="#000000" stroke-width="2" stroke-linecap="round"/><path d="M214.07212,182.97465l-23.9478,-6.6354l0.5608,-2.0237l23.9477,6.6353z" fill="#ae7b26" stroke="none" stroke-width="1" stroke-linecap="butt"/><path d="M218.30452,180.75475l24.0125,-6.3971l0.5406,2.0292l-24.0125,6.3971z" fill="#ae7b26" stroke="none" stroke-width="1" stroke-linecap="butt"/><path d="M212.52182,161.22265l3.9795,-4.0871l3.8709,4.1379l0.0524,10.3932l-0.9139,17.0862l-1.1081,8.3204l7.8142,2.8075l0.1103,2.033l-1.4959,0.8209l-18.0998,0.0913l-1.4041,-0.8064l0.2409,-1.8087l8.634,-3.2068l-1.0415,-8.2192l-0.5865,-17.169z" fill="#765319" stroke="#000000" stroke-width="1.9062" stroke-linecap="round"/><path d="M203.54952,164.92425l3.65,-0.0184l0.0317,6.2887l-3.65,0.0184z" fill="#d29f30" stroke="#000000" stroke-width="1.86122" stroke-linecap="butt"/><path d="M225.69952,164.92425l3.65,-0.0184l0.0317,6.2887l-3.65,0.0184z" fill="#d29f30" stroke="#000000" stroke-width="1.86122" stroke-linecap="butt"/><path d="M208.13002,200.89685l15.8436,0.0092l0.9746,1.6868l-18.5472,0.2716z" fill="#ae7b26" stroke="none" stroke-width="1.43254" stroke-linecap="round"/><path d="M223.41262,174.43125l8.5999,-0.0434l0.0083,1.65l-8.5999,0.0434z" fill="#ffd315" stroke="none" stroke-width="0.94716" stroke-linecap="butt"/><path d="M200.76262,174.33125l8.5999,-0.0434l0.0083,1.65l-8.5999,0.0434z" fill="#ffd315" stroke="none" stroke-width="0.94716" stroke-linecap="butt"/><path d="M216.21932,170.11195c0.6967,-0.0035 1.3296,0.3213 1.7895,0.848c0.4591,0.5277 0.7461,1.2573 0.7502,2.0642c0.0041,0.807 -0.2756,1.5395 -0.7293,2.0717c-0.4546,0.5313 -1.0842,0.8625 -1.7809,0.866c-0.6967,0.0035 -1.3296,-0.3213 -1.7896,-0.848c-0.459,-0.5277 -0.7461,-1.2572 -0.7501,-2.0642c-0.0041,-0.807 0.2756,-1.5394 0.7293,-2.0717c0.4546,-0.5313 1.0842,-0.8625 1.7809,-0.866z" fill="#15c4ff" stroke="none" stroke-width="0.96814" stroke-linecap="butt"/><path d="M214.27222,192.44655l4.0499,-0.0205l-0.2866,2.6515l-3.4499,0.0174z" fill="#ffd214" stroke="none" stroke-width="1" stroke-linecap="round"/><path d="M222.88812,159.10135l-12.6998,0.064" fill="none" stroke="#000000" stroke-width="2" stroke-linecap="round"/><path d="M214.98972,160.04295l2.95,-0.0149l1.4578,1.5427l-5.8999,0.0297z" fill="#d29f30" stroke="none" stroke-width="1" stroke-linecap="round"/><path d="M216.39212,170.43475c0.759,-0.0038 1.4476,0.3007 1.9481,0.7962c0.5005,0.4955 0.8119,1.1809 0.8158,1.9399c0.0038,0.759 -0.3007,1.4475 -0.7962,1.948c-0.4955,0.5005 -1.181,0.812 -1.9399,0.8158c-0.759,0.0038 -1.4476,-0.3007 -1.9481,-0.7962c-0.5005,-0.4955 -0.8119,-1.1809 -0.8158,-1.9399c-0.0038,-0.759 0.3007,-1.4475 0.7962,-1.948c0.4955,-0.5005 1.1809,-0.812 1.9399,-0.8158z" fill="none" stroke="#463207" stroke-width="1" stroke-linecap="butt"/><path d="M249.00795,171.41245l51.2994,-0.2585l1.3782,5.5931l-23.819,6.2201l-7.2999,0.0368l-23.7309,-6.0804z" fill="#765319" stroke="#000000" stroke-width="2" stroke-linecap="round"/><path d="M271.87955,182.97465l-23.9478,-6.6354l0.5608,-2.0237l23.9477,6.6353z" fill="#ae7b26" stroke="none" stroke-width="1" stroke-linecap="butt"/><path d="M276.11195,180.75475l24.0125,-6.3971l0.5406,2.0292l-24.0125,6.3971z" fill="#ae7b26" stroke="none" stroke-width="1" stroke-linecap="butt"/><path d="M270.32925,161.22265l3.9795,-4.0871l3.8709,4.1379l0.0524,10.3932l-0.9139,17.0862l-1.1081,8.3204l7.8142,2.8075l0.1103,2.033l-1.4959,0.8209l-18.0998,0.0913l-1.4041,-0.8064l0.2409,-1.8087l8.634,-3.2068l-1.0415,-8.2192l-0.5865,-17.169z" fill="#765319" stroke="#000000" stroke-width="1.9062" stroke-linecap="round"/><path d="M261.35695,164.92425l3.65,-0.0184l0.0317,6.2887l-3.65,0.0184z" fill="#d29f30" stroke="#000000" stroke-width="1.86122" stroke-linecap="butt"/><path d="M283.50695,164.92425l3.65,-0.0184l0.0317,6.2887l-3.65,0.0184z" fill="#d29f30" stroke="#000000" stroke-width="1.86122" stroke-linecap="butt"/><path d="M265.93745,200.89685l15.8436,0.0092l0.9746,1.6868l-18.5472,0.2716z" fill="#ae7b26" stroke="none" stroke-width="1.43254" stroke-linecap="round"/><path d="M281.22005,174.43125l8.5999,-0.0434l0.0083,1.65l-8.5999,0.0434z" fill="#ffd315" stroke="none" stroke-width="0.94716" stroke-linecap="butt"/><path d="M258.57005,174.33125l8.5999,-0.0434l0.0083,1.65l-8.5999,0.0434z" fill="#ffd315" stroke="none" stroke-width="0.94716" stroke-linecap="butt"/><path d="M274.02675,170.11195c0.6967,-0.0035 1.3296,0.3213 1.7895,0.848c0.4591,0.5277 0.7461,1.2573 0.7502,2.0642c0.0041,0.807 -0.2756,1.5395 -0.7293,2.0717c-0.4546,0.5313 -1.0842,0.8625 -1.7809,0.866c-0.6967,0.0035 -1.3296,-0.3213 -1.7896,-0.848c-0.459,-0.5277 -0.7461,-1.2572 -0.7501,-2.0642c-0.0041,-0.807 0.2756,-1.5394 0.7293,-2.0717c0.4546,-0.5313 1.0842,-0.8625 1.7809,-0.866z" fill="#15c4ff" stroke="none" stroke-width="0.96814" stroke-linecap="butt"/><path d="M272.07965,192.44655l4.0499,-0.0205l-0.2866,2.6515l-3.4499,0.0174z" fill="#ffd214" stroke="none" stroke-width="1" stroke-linecap="round"/><path d="M267.99575,159.16535l12.6998,-0.064" fill="none" stroke="#000000" stroke-width="2" stroke-linecap="round"/><path d="M272.79715,160.04295l2.95,-0.0149l1.4578,1.5427l-5.8999,0.0297z" fill="#d29f30" stroke="none" stroke-width="1" stroke-linecap="round"/><path d="M274.19955,170.43475c0.759,-0.0038 1.4476,0.3007 1.9481,0.7962c0.5005,0.4955 0.8119,1.1809 0.8158,1.9399c0.0038,0.759 -0.3007,1.4475 -0.7962,1.948c-0.4955,0.5005 -1.181,0.812 -1.9399,0.8158c-0.759,0.0038 -1.4476,-0.3007 -1.9481,-0.7962c-0.5005,-0.4955 -0.8119,-1.1809 -0.8158,-1.9399c-0.0038,-0.759 0.3007,-1.4475 0.7962,-1.948c0.4955,-0.5005 1.1809,-0.812 1.9399,-0.8158z" fill="none" stroke="#463207" stroke-width="1" stroke-linecap="butt"/><path d="M306.56512,171.41245l51.2994,-0.2585l1.3782,5.5931l-23.819,6.2201l-7.2999,0.0368l-23.7309,-6.0804z" fill="#765319" stroke="#000000" stroke-width="2" stroke-linecap="round"/><path d="M329.43672,182.97465l-23.9478,-6.6354l0.5608,-2.0237l23.9477,6.6353z" fill="#ae7b26" stroke="none" stroke-width="1" stroke-linecap="butt"/><path d="M333.66912,180.75475l24.0125,-6.3971l0.5406,2.0292l-24.0125,6.3971z" fill="#ae7b26" stroke="none" stroke-width="1" stroke-linecap="butt"/><path d="M327.88642,161.22265l3.9795,-4.0871l3.8709,4.1379l0.0524,10.3932l-0.9139,17.0862l-1.1081,8.3204l7.8142,2.8075l0.1103,2.033l-1.4959,0.8209l-18.0998,0.0913l-1.4041,-0.8064l0.2409,-1.8087l8.634,-3.2068l-1.0415,-8.2192l-0.5865,-17.169z" fill="#765319" stroke="#000000" stroke-width="1.9062" stroke-linecap="round"/><path d="M318.91412,164.92425l3.65,-0.0184l0.0317,6.2887l-3.65,0.0184z" fill="#d29f30" stroke="#000000" stroke-width="1.86122" stroke-linecap="butt"/><path d="M341.06412,164.92425l3.65,-0.0184l0.0317,6.2887l-3.65,0.0184z" fill="#d29f30" stroke="#000000" stroke-width="1.86122" stroke-linecap="butt"/><path d="M323.49462,200.89685l15.8436,0.0092l0.9746,1.6868l-18.5472,0.2716z" fill="#ae7b26" stroke="none" stroke-width="1.43254" stroke-linecap="round"/><path d="M338.77722,174.43125l8.5999,-0.0434l0.0083,1.65l-8.5999,0.0434z" fill="#ffd315" stroke="none" stroke-width="0.94716" stroke-linecap="butt"/><path d="M316.12722,174.33125l8.5999,-0.0434l0.0083,1.65l-8.5999,0.0434z" fill="#ffd315" stroke="none" stroke-width="0.94716" stroke-linecap="butt"/><path d="M331.58392,170.11195c0.6967,-0.0035 1.3296,0.3213 1.7895,0.848c0.4591,0.5277 0.7461,1.2573 0.7502,2.0642c0.0041,0.807 -0.2756,1.5395 -0.7293,2.0717c-0.4546,0.5313 -1.0842,0.8625 -1.7809,0.866c-0.6967,0.0035 -1.3296,-0.3213 -1.7896,-0.848c-0.459,-0.5277 -0.7461,-1.2572 -0.7501,-2.0642c-0.0041,-0.807 0.2756,-1.5394 0.7293,-2.0717c0.4546,-0.5313 1.0842,-0.8625 1.7809,-0.866z" fill="#15c4ff" stroke="none" stroke-width="0.96814" stroke-linecap="butt"/><path d="M329.63682,192.44655l4.0499,-0.0205l-0.2866,2.6515l-3.4499,0.0174z" fill="#ffd214" stroke="none" stroke-width="1" stroke-linecap="round"/><path d="M325.55292,159.16535l12.6998,-0.064" fill="none" stroke="#000000" stroke-width="2" stroke-linecap="round"/><path d="M330.35432,160.04295l2.95,-0.0149l1.4578,1.5427l-5.8999,0.0297z" fill="#d29f30" stroke="none" stroke-width="1" stroke-linecap="round"/><path d="M331.75672,170.43475c0.759,-0.0038 1.4476,0.3007 1.9481,0.7962c0.5005,0.4955 0.8119,1.1809 0.8158,1.9399c0.0038,0.759 -0.3007,1.4475 -0.7962,1.948c-0.4955,0.5005 -1.181,0.812 -1.9399,0.8158c-0.759,0.0038 -1.4476,-0.3007 -1.9481,-0.7962c-0.5005,-0.4955 -0.8119,-1.1809 -0.8158,-1.9399c-0.0038,-0.759 0.3007,-1.4475 0.7962,-1.948c0.4955,-0.5005 1.1809,-0.812 1.9399,-0.8158z" fill="none" stroke="#463207" stroke-width="1" stroke-linecap="butt"/><path d="M364.1223,171.41245l51.2994,-0.2585l1.3782,5.5931l-23.819,6.2201l-7.2999,0.0368l-23.7309,-6.0804z" fill="#765319" stroke="#000000" stroke-width="2" stroke-linecap="round"/><path d="M386.9939,182.97465l-23.9478,-6.6354l0.5608,-2.0237l23.9477,6.6353z" fill="#ae7b26" stroke="none" stroke-width="1" stroke-linecap="butt"/><path d="M391.2263,180.75475l24.0125,-6.3971l0.5406,2.0292l-24.0125,6.3971z" fill="#ae7b26" stroke="none" stroke-width="1" stroke-linecap="butt"/><path d="M385.4436,161.22265l3.9795,-4.0871l3.8709,4.1379l0.0524,10.3932l-0.9139,17.0862l-1.1081,8.3204l7.8142,2.8075l0.1103,2.033l-1.4959,0.8209l-18.0998,0.0913l-1.4041,-0.8064l0.2409,-1.8087l8.634,-3.2068l-1.0415,-8.2192l-0.5865,-17.169z" fill="#765319" stroke="#000000" stroke-width="1.9062" stroke-linecap="round"/><path d="M376.4713,164.92425l3.65,-0.0184l0.0317,6.2887l-3.65,0.0184z" fill="#d29f30" stroke="#000000" stroke-width="1.86122" stroke-linecap="butt"/><path d="M398.6213,164.92425l3.65,-0.0184l0.0317,6.2887l-3.65,0.0184z" fill="#d29f30" stroke="#000000" stroke-width="1.86122" stroke-linecap="butt"/><path d="M381.0518,200.89685l15.8436,0.0092l0.9746,1.6868l-18.5472,0.2716z" fill="#ae7b26" stroke="none" stroke-width="1.43254" stroke-linecap="round"/><path d="M396.3344,174.43125l8.5999,-0.0434l0.0083,1.65l-8.5999,0.0434z" fill="#ffd315" stroke="none" stroke-width="0.94716" stroke-linecap="butt"/><path d="M373.6844,174.33125l8.5999,-0.0434l0.0083,1.65l-8.5999,0.0434z" fill="#ffd315" stroke="none" stroke-width="0.94716" stroke-linecap="butt"/><path d="M389.1411,170.11195c0.6967,-0.0035 1.3296,0.3213 1.7895,0.848c0.4591,0.5277 0.7461,1.2573 0.7502,2.0642c0.0041,0.807 -0.2756,1.5395 -0.7293,2.0717c-0.4546,0.5313 -1.0842,0.8625 -1.7809,0.866c-0.6967,0.0035 -1.3296,-0.3213 -1.7896,-0.848c-0.459,-0.5277 -0.7461,-1.2572 -0.7501,-2.0642c-0.0041,-0.807 0.2756,-1.5394 0.7293,-2.0717c0.4546,-0.5313 1.0842,-0.8625 1.7809,-0.866z" fill="#15c4ff" stroke="none" stroke-width="0.96814" stroke-linecap="butt"/><path d="M387.194,192.44655l4.0499,-0.0205l-0.2866,2.6515l-3.4499,0.0174z" fill="#ffd214" stroke="none" stroke-width="1" stroke-linecap="round"/><path d="M383.1101,159.16535l12.6998,-0.064" fill="none" stroke="#000000" stroke-width="2" stroke-linecap="round"/><path d="M387.9115,160.04295l2.95,-0.0149l1.4578,1.5427l-5.8999,0.0297z" fill="#d29f30" stroke="none" stroke-width="1" stroke-linecap="round"/><path d="M389.3139,170.43475c0.759,-0.0038 1.4476,0.3007 1.9481,0.7962c0.5005,0.4955 0.8119,1.1809 0.8158,1.9399c0.0038,0.759 -0.3007,1.4475 -0.7962,1.948c-0.4955,0.5005 -1.181,0.812 -1.9399,0.8158c-0.759,0.0038 -1.4476,-0.3007 -1.9481,-0.7962c-0.5005,-0.4955 -0.8119,-1.1809 -0.8158,-1.9399c-0.0038,-0.759 0.3007,-1.4475 0.7962,-1.948c0.4955,-0.5005 1.1809,-0.812 1.9399,-0.8158z" fill="none" stroke="#463207" stroke-width="1" stroke-linecap="butt"/><path d="M421.92972,171.41245l51.2994,-0.2585l1.3782,5.5931l-23.819,6.2201l-7.2999,0.0368l-23.7309,-6.0804z" fill="#765319" stroke="#000000" stroke-width="2" stroke-linecap="round"/><path d="M444.80132,182.97465l-23.9478,-6.6354l0.5608,-2.0237l23.9477,6.6353z" fill="#ae7b26" stroke="none" stroke-width="1" stroke-linecap="butt"/><path d="M449.03372,180.75475l24.0125,-6.3971l0.5406,2.0292l-24.0125,6.3971z" fill="#ae7b26" stroke="none" stroke-width="1" stroke-linecap="butt"/><path d="M443.25102,161.22265l3.9795,-4.0871l3.8709,4.1379l0.0524,10.3932l-0.9139,17.0862l-1.1081,8.3204l7.8142,2.8075l0.1103,2.033l-1.4959,0.8209l-18.0998,0.0913l-1.4041,-0.8064l0.2409,-1.8087l8.634,-3.2068l-1.0415,-8.2192l-0.5865,-17.169z" fill="#765319" stroke="#000000" stroke-width="1.9062" stroke-linecap="round"/><path d="M434.27872,164.92425l3.65,-0.0184l0.0317,6.2887l-3.65,0.0184z" fill="#d29f30" stroke="#000000" stroke-width="1.86122" stroke-linecap="butt"/><path d="M456.42872,164.92425l3.65,-0.0184l0.0317,6.2887l-3.65,0.0184z" fill="#d29f30" stroke="#000000" stroke-width="1.86122" stroke-linecap="butt"/><path d="M438.85922,200.89685l15.8436,0.0092l0.9746,1.6868l-18.5472,0.2716z" fill="#ae7b26" stroke="none" stroke-width="1.43254" stroke-linecap="round"/><path d="M454.14182,174.43125l8.5999,-0.0434l0.0083,1.65l-8.5999,0.0434z" fill="#ffd315" stroke="none" stroke-width="0.94716" stroke-linecap="butt"/><path d="M431.49182,174.33125l8.5999,-0.0434l0.0083,1.65l-8.5999,0.0434z" fill="#ffd315" stroke="none" stroke-width="0.94716" stroke-linecap="butt"/><path d="M446.94852,170.11195c0.6967,-0.0035 1.3296,0.3213 1.7895,0.848c0.4591,0.5277 0.7461,1.2573 0.7502,2.0642c0.0041,0.807 -0.2756,1.5395 -0.7293,2.0717c-0.4546,0.5313 -1.0842,0.8625 -1.7809,0.866c-0.6967,0.0035 -1.3296,-0.3213 -1.7896,-0.848c-0.459,-0.5277 -0.7461,-1.2572 -0.7501,-2.0642c-0.0041,-0.807 0.2756,-1.5394 0.7293,-2.0717c0.4546,-0.5313 1.0842,-0.8625 1.7809,-0.866z" fill="#15c4ff" stroke="none" stroke-width="0.96814" stroke-linecap="butt"/><path d="M445.00142,192.44655l4.0499,-0.0205l-0.2866,2.6515l-3.4499,0.0174z" fill="#ffd214" stroke="none" stroke-width="1" stroke-linecap="round"/><path d="M440.91752,159.16535l12.6998,-0.064" fill="none" stroke="#000000" stroke-width="2" stroke-linecap="round"/><path d="M445.71892,160.04295l2.95,-0.0149l1.4578,1.5427l-5.8999,0.0297z" fill="#d29f30" stroke="none" stroke-width="1" stroke-linecap="round"/><path d="M447.12132,170.43475c0.759,-0.0038 1.4476,0.3007 1.9481,0.7962c0.5005,0.4955 0.8119,1.1809 0.8158,1.9399c0.0038,0.759 -0.3007,1.4475 -0.7962,1.948c-0.4955,0.5005 -1.181,0.812 -1.9399,0.8158c-0.759,0.0038 -1.4476,-0.3007 -1.9481,-0.7962c-0.5005,-0.4955 -0.8119,-1.1809 -0.8158,-1.9399c-0.0038,-0.759 0.3007,-1.4475 0.7962,-1.948c0.4955,-0.5005 1.1809,-0.812 1.9399,-0.8158z" fill="none" stroke="#463207" stroke-width="1" stroke-linecap="butt"/></g></g></svg>